<?xml version="1.0" encoding="UTF-8"?> <svg xmlns="http://www.w3.org/2000/svg" width="40" height="40" viewBox="0 0 40 40" fill="none"><g clip-path="url(#clip0_197_401)"><path fill-rule="evenodd" clip-rule="evenodd" d="M35.6506 6.85667C37.3639 7.31795 38.7148 8.66885 39.1761 10.3822C40.0328 13.5123 39.9998 20.0362 39.9998 20.0362C39.9998 20.0362 39.9998 26.5271 39.1761 29.6572C38.7148 31.3706 37.3639 32.7215 35.6506 33.1828C32.5205 34.0065 19.9999 34.0065 19.9999 34.0065C19.9999 34.0065 7.51232 34.0065 4.34924 33.1498C2.6359 32.6885 1.285 31.3376 0.82372 29.6243C0 26.5271 0 20.0032 0 20.0032C0 20.0032 0 13.5123 0.82372 10.3822C1.285 8.66885 2.66885 7.285 4.34924 6.82372C7.47937 6 19.9999 6 19.9999 6C19.9999 6 32.5205 6 35.6506 6.85667ZM26.4247 20.0031L16.0129 25.9998V14.0065L26.4247 20.0031Z" fill="white"></path></g><defs><clipPath id="clip0_197_401"><rect width="40" height="40" fill="white"></rect></clipPath></defs></svg> 